<?xml version="1.0" encoding="UTF-8" standalone="no" ?>
<!DOCTYPE svg PUBLIC "-//W3C//DTD SVG 1.1//EN" "http://www.w3.org/Graphics/SVG/1.1/DTD/svg11.dtd">
<svg xmlns="http://www.w3.org/2000/svg" xmlns:xlink="http://www.w3.org/1999/xlink" version="1.1" width="800" height="400" viewBox="0 0 800 400" xml:space="preserve">
<desc>Created with Fabric.js 3.6.1</desc>
<defs>
</defs>
<g transform="matrix(0.04 0 0 -0.04 29.5 207.28)"  >
<path style="stroke: rgb(0,0,0); stroke-width: 0; stroke-dasharray: none; stroke-linecap: butt; stroke-dashoffset: 0; stroke-linejoin: miter; stroke-miterlimit: 4; fill: rgb(0,0,0); fill-rule: nonzero; opacity: 1;"  transform=" translate(-139, -250.5)" d="M 139 -249 H 137 Q 125 -249 119 -235 V 251 L 120 737 Q 130 750 139 750 Q 152 750 159 735 V -235 Q 151 -249 141 -249 H 139 Z" stroke-linecap="round" />
</g>
<g transform="matrix(0.04 0 0 -0.04 46.32 203.44)"  >
<path style="stroke: rgb(0,0,0); stroke-width: 0; stroke-dasharray: none; stroke-linecap: butt; stroke-dashoffset: 0; stroke-linejoin: miter; stroke-miterlimit: 4; fill: rgb(0,0,0); fill-rule: nonzero; opacity: 1;"  transform=" translate(-301.83, -341)" d="M 166 673 Q 166 685 183 694 H 202 Q 292 691 316 644 Q 322 629 373 486 T 474 207 T 524 67 Q 531 47 537 34 T 546 15 T 551 6 T 555 2 T 556 -2 T 550 -11 H 482 Q 457 3 450 18 T 399 152 L 354 277 L 340 262 Q 327 246 293 207 T 236 141 Q 211 112 174 69 Q 123 9 111 -1 T 83 -12 Q 47 -12 47 20 Q 47 37 61 52 T 199 187 Q 229 216 266 252 T 321 306 L 338 322 Q 338 323 288 462 T 234 612 Q 214 657 183 657 Q 166 657 166 673 Z" stroke-linecap="round" />
</g>
<g transform="matrix(0.04 0 0 -0.04 65.95 203.37)"  >
<path style="stroke: rgb(0,0,0); stroke-width: 0; stroke-dasharray: none; stroke-linecap: butt; stroke-dashoffset: 0; stroke-linejoin: miter; stroke-miterlimit: 4; fill: rgb(0,0,0); fill-rule: nonzero; opacity: 1;"  transform=" translate(-265, -341.5)" d="M 43 1 Q 26 1 26 10 Q 26 12 29 24 Q 34 43 39 45 Q 42 46 54 46 H 60 Q 120 46 136 53 Q 137 53 138 54 Q 143 56 149 77 T 198 273 Q 210 318 216 344 Q 286 624 286 626 Q 284 630 284 631 Q 274 637 213 637 H 193 Q 184 643 189 662 Q 193 677 195 680 T 209 683 H 213 Q 285 681 359 681 Q 481 681 487 683 H 497 Q 504 676 504 672 T 501 655 T 494 639 Q 491 637 471 637 Q 440 637 407 634 Q 393 631 388 623 Q 381 609 337 432 Q 326 385 315 341 Q 245 65 245 59 Q 245 52 255 50 T 307 46 H 339 Q 345 38 345 37 T 342 19 Q 338 6 332 0 H 316 Q 279 2 179 2 Q 143 2 113 2 T 65 2 T 43 1 Z" stroke-linecap="round" />
</g>
<g transform="matrix(0.04 0 0 -0.04 96.86 205.4)"  >
<path style="stroke: rgb(0,0,0); stroke-width: 0; stroke-dasharray: none; stroke-linecap: butt; stroke-dashoffset: 0; stroke-linejoin: miter; stroke-miterlimit: 4; fill: rgb(0,0,0); fill-rule: nonzero; opacity: 1;"  transform=" translate(-389, -250)" d="M 84 237 T 84 250 T 98 270 H 679 Q 694 262 694 250 T 679 230 H 98 Q 84 237 84 250 Z" stroke-linecap="round" />
</g>
<g transform="matrix(0.04 0 0 -0.04 133.37 203.37)"  >
<path style="stroke: rgb(0,0,0); stroke-width: 0; stroke-dasharray: none; stroke-linecap: butt; stroke-dashoffset: 0; stroke-linejoin: miter; stroke-miterlimit: 4; fill: rgb(0,0,0); fill-rule: nonzero; opacity: 1;"  transform=" translate(-395.5, -341.5)" d="M 231 637 Q 204 637 199 638 T 194 649 Q 194 676 205 682 Q 206 683 335 683 Q 594 683 608 681 Q 671 671 713 636 T 756 544 Q 756 480 698 429 T 565 360 L 555 357 Q 619 348 660 311 T 702 219 Q 702 146 630 78 T 453 1 Q 446 0 242 0 Q 42 0 39 2 Q 35 5 35 10 Q 35 17 37 24 Q 42 43 47 45 Q 51 46 62 46 H 68 Q 95 46 128 49 Q 142 52 147 61 Q 150 65 219 339 T 288 628 Q 288 635 231 637 Z M 649 544 Q 649 574 634 600 T 585 634 Q 578 636 493 637 Q 473 637 451 637 T 416 636 H 403 Q 388 635 384 626 Q 382 622 352 506 Q 352 503 351 500 L 320 374 H 401 Q 482 374 494 376 Q 554 386 601 434 T 649 544 Z M 595 229 Q 595 273 572 302 T 512 336 Q 506 337 429 337 Q 311 337 310 336 Q 310 334 293 263 T 258 122 L 240 52 Q 240 48 252 48 T 333 46 Q 422 46 429 47 Q 491 54 543 105 T 595 229 Z" stroke-linecap="round" />
</g>
<g transform="matrix(0.04 0 0 -0.04 134.9 184.94)"  >
<path style="stroke: rgb(0,0,0); stroke-width: 0; stroke-dasharray: none; stroke-linecap: butt; stroke-dashoffset: 0; stroke-linejoin: miter; stroke-miterlimit: 4; fill: rgb(0,0,0); fill-rule: nonzero; opacity: 1;"  transform=" translate(-249.5, -612.5)" d="M 112 560 L 249 694 L 257 686 Q 387 562 387 560 L 361 531 Q 359 532 303 581 L 250 627 L 195 580 Q 182 569 169 557 T 148 538 L 140 532 Q 138 530 125 546 L 112 560 Z" stroke-linecap="round" />
</g>
<g transform="matrix(0.03 0 0 -0.03 153.98 215.27)"  >
<path style="stroke: rgb(0,0,0); stroke-width: 0; stroke-dasharray: none; stroke-linecap: butt; stroke-dashoffset: 0; stroke-linejoin: miter; stroke-miterlimit: 4; fill: rgb(0,0,0); fill-rule: nonzero; opacity: 1;"  transform=" translate(-300.5, -215.67)" d="M 21 287 Q 22 293 24 303 T 36 341 T 56 388 T 89 425 T 135 442 Q 171 442 195 424 T 225 390 T 231 369 Q 231 367 232 367 L 243 378 Q 304 442 382 442 Q 436 442 469 415 T 503 336 T 465 179 T 427 52 Q 427 26 444 26 Q 450 26 453 27 Q 482 32 505 65 T 540 145 Q 542 153 560 153 Q 580 153 580 145 Q 580 144 576 130 Q 568 101 554 73 T 508 17 T 439 -10 Q 392 -10 371 17 T 350 73 Q 350 92 386 193 T 423 345 Q 423 404 379 404 H 374 Q 288 404 229 303 L 222 291 L 189 157 Q 156 26 151 16 Q 138 -11 108 -11 Q 95 -11 87 -5 T 76 7 T 74 17 Q 74 30 112 180 T 152 343 Q 153 348 153 366 Q 153 405 129 405 Q 91 405 66 305 Q 60 285 60 284 Q 58 278 41 278 H 27 Q 21 284 21 287 Z" stroke-linecap="round" />
</g>
<g transform="matrix(0.03 0 0 -0.03 171.76 214.86)"  >
<path style="stroke: rgb(0,0,0); stroke-width: 0; stroke-dasharray: none; stroke-linecap: butt; stroke-dashoffset: 0; stroke-linejoin: miter; stroke-miterlimit: 4; fill: rgb(0,0,0); fill-rule: nonzero; opacity: 1;"  transform=" translate(-389, -250.5)" d="M 56 237 T 56 250 T 70 270 H 369 V 420 L 370 570 Q 380 583 389 583 Q 402 583 409 568 V 270 H 707 Q 722 262 722 250 T 707 230 H 409 V -68 Q 401 -82 391 -82 H 389 H 387 Q 375 -82 369 -68 V 230 H 70 Q 56 237 56 250 Z" stroke-linecap="round" />
</g>
<g transform="matrix(0.03 0 0 -0.03 187.45 212.76)"  >
<path style="stroke: rgb(0,0,0); stroke-width: 0; stroke-dasharray: none; stroke-linecap: butt; stroke-dashoffset: 0; stroke-linejoin: miter; stroke-miterlimit: 4; fill: rgb(0,0,0); fill-rule: nonzero; opacity: 1;"  transform=" translate(-255, -333)" d="M 213 578 L 200 573 Q 186 568 160 563 T 102 556 H 83 V 602 H 102 Q 149 604 189 617 T 245 641 T 273 663 Q 275 666 285 666 Q 294 666 302 660 V 361 L 303 61 Q 310 54 315 52 T 339 48 T 401 46 H 427 V 0 H 416 Q 395 3 257 3 Q 121 3 100 0 H 88 V 46 H 114 Q 136 46 152 46 T 177 47 T 193 50 T 201 52 T 207 57 T 213 61 V 578 Z" stroke-linecap="round" />
</g>
<g transform="matrix(0.04 0 0 -0.04 199.82 207.28)"  >
<path style="stroke: rgb(0,0,0); stroke-width: 0; stroke-dasharray: none; stroke-linecap: butt; stroke-dashoffset: 0; stroke-linejoin: miter; stroke-miterlimit: 4; fill: rgb(0,0,0); fill-rule: nonzero; opacity: 1;"  transform=" translate(-139, -250.5)" d="M 139 -249 H 137 Q 125 -249 119 -235 V 251 L 120 737 Q 130 750 139 750 Q 152 750 159 735 V -235 Q 151 -249 141 -249 H 139 Z" stroke-linecap="round" />
</g>
<g transform="matrix(0.04 0 0 -0.04 230.1 205.79)"  >
<path style="stroke: rgb(0,0,0); stroke-width: 0; stroke-dasharray: none; stroke-linecap: butt; stroke-dashoffset: 0; stroke-linejoin: miter; stroke-miterlimit: 4; fill: rgb(0,0,0); fill-rule: nonzero; opacity: 1;"  transform=" translate(-389, -250)" d="M 56 347 Q 56 360 70 367 H 707 Q 722 359 722 347 Q 722 336 708 328 L 390 327 H 72 Q 56 332 56 347 Z M 56 153 Q 56 168 72 173 H 708 Q 722 163 722 153 Q 722 140 707 133 H 70 Q 56 140 56 153 Z" stroke-linecap="round" />
</g>
<g transform="matrix(0.04 0 0 -0.25 258.9 206.69)"  >
<path style="stroke: rgb(0,0,0); stroke-width: 0; stroke-dasharray: none; stroke-linecap: butt; stroke-dashoffset: 0; stroke-linejoin: miter; stroke-miterlimit: 4; fill: rgb(0,0,0); fill-rule: nonzero; opacity: 1;"  transform=" translate(-139, -250.5)" d="M 139 -249 H 137 Q 125 -249 119 -235 V 251 L 120 737 Q 130 750 139 750 Q 152 750 159 735 V -235 Q 151 -249 141 -249 H 139 Z" stroke-linecap="round" />
</g>
<g transform="matrix(0.04 0 0 -0.04 276.71 148.35)"  >
<path style="stroke: rgb(0,0,0); stroke-width: 0; stroke-dasharray: none; stroke-linecap: butt; stroke-dashoffset: 0; stroke-linejoin: miter; stroke-miterlimit: 4; fill: rgb(0,0,0); fill-rule: nonzero; opacity: 1;"  transform=" translate(-301.83, -341)" d="M 166 673 Q 166 685 183 694 H 202 Q 292 691 316 644 Q 322 629 373 486 T 474 207 T 524 67 Q 531 47 537 34 T 546 15 T 551 6 T 555 2 T 556 -2 T 550 -11 H 482 Q 457 3 450 18 T 399 152 L 354 277 L 340 262 Q 327 246 293 207 T 236 141 Q 211 112 174 69 Q 123 9 111 -1 T 83 -12 Q 47 -12 47 20 Q 47 37 61 52 T 199 187 Q 229 216 266 252 T 321 306 L 338 322 Q 338 323 288 462 T 234 612 Q 214 657 183 657 Q 166 657 166 673 Z" stroke-linecap="round" />
</g>
<g transform="matrix(0.04 0 0 -0.04 296.34 148.29)"  >
<path style="stroke: rgb(0,0,0); stroke-width: 0; stroke-dasharray: none; stroke-linecap: butt; stroke-dashoffset: 0; stroke-linejoin: miter; stroke-miterlimit: 4; fill: rgb(0,0,0); fill-rule: nonzero; opacity: 1;"  transform=" translate(-265, -341.5)" d="M 43 1 Q 26 1 26 10 Q 26 12 29 24 Q 34 43 39 45 Q 42 46 54 46 H 60 Q 120 46 136 53 Q 137 53 138 54 Q 143 56 149 77 T 198 273 Q 210 318 216 344 Q 286 624 286 626 Q 284 630 284 631 Q 274 637 213 637 H 193 Q 184 643 189 662 Q 193 677 195 680 T 209 683 H 213 Q 285 681 359 681 Q 481 681 487 683 H 497 Q 504 676 504 672 T 501 655 T 494 639 Q 491 637 471 637 Q 440 637 407 634 Q 393 631 388 623 Q 381 609 337 432 Q 326 385 315 341 Q 245 65 245 59 Q 245 52 255 50 T 307 46 H 339 Q 345 38 345 37 T 342 19 Q 338 6 332 0 H 316 Q 279 2 179 2 Q 143 2 113 2 T 65 2 T 43 1 Z" stroke-linecap="round" />
</g>
<g transform="matrix(0.04 0 0 -0.04 327.25 150.32)"  >
<path style="stroke: rgb(0,0,0); stroke-width: 0; stroke-dasharray: none; stroke-linecap: butt; stroke-dashoffset: 0; stroke-linejoin: miter; stroke-miterlimit: 4; fill: rgb(0,0,0); fill-rule: nonzero; opacity: 1;"  transform=" translate(-389, -250)" d="M 84 237 T 84 250 T 98 270 H 679 Q 694 262 694 250 T 679 230 H 98 Q 84 237 84 250 Z" stroke-linecap="round" />
</g>
<g transform="matrix(0.04 0 0 -0.04 363.76 148.29)"  >
<path style="stroke: rgb(0,0,0); stroke-width: 0; stroke-dasharray: none; stroke-linecap: butt; stroke-dashoffset: 0; stroke-linejoin: miter; stroke-miterlimit: 4; fill: rgb(0,0,0); fill-rule: nonzero; opacity: 1;"  transform=" translate(-395.5, -341.5)" d="M 231 637 Q 204 637 199 638 T 194 649 Q 194 676 205 682 Q 206 683 335 683 Q 594 683 608 681 Q 671 671 713 636 T 756 544 Q 756 480 698 429 T 565 360 L 555 357 Q 619 348 660 311 T 702 219 Q 702 146 630 78 T 453 1 Q 446 0 242 0 Q 42 0 39 2 Q 35 5 35 10 Q 35 17 37 24 Q 42 43 47 45 Q 51 46 62 46 H 68 Q 95 46 128 49 Q 142 52 147 61 Q 150 65 219 339 T 288 628 Q 288 635 231 637 Z M 649 544 Q 649 574 634 600 T 585 634 Q 578 636 493 637 Q 473 637 451 637 T 416 636 H 403 Q 388 635 384 626 Q 382 622 352 506 Q 352 503 351 500 L 320 374 H 401 Q 482 374 494 376 Q 554 386 601 434 T 649 544 Z M 595 229 Q 595 273 572 302 T 512 336 Q 506 337 429 337 Q 311 337 310 336 Q 310 334 293 263 T 258 122 L 240 52 Q 240 48 252 48 T 333 46 Q 422 46 429 47 Q 491 54 543 105 T 595 229 Z" stroke-linecap="round" />
</g>
<g transform="matrix(0.04 0 0 -0.04 365.29 129.85)"  >
<path style="stroke: rgb(0,0,0); stroke-width: 0; stroke-dasharray: none; stroke-linecap: butt; stroke-dashoffset: 0; stroke-linejoin: miter; stroke-miterlimit: 4; fill: rgb(0,0,0); fill-rule: nonzero; opacity: 1;"  transform=" translate(-249.5, -612.5)" d="M 112 560 L 249 694 L 257 686 Q 387 562 387 560 L 361 531 Q 359 532 303 581 L 250 627 L 195 580 Q 182 569 169 557 T 148 538 L 140 532 Q 138 530 125 546 L 112 560 Z" stroke-linecap="round" />
</g>
<g transform="matrix(0.03 0 0 -0.03 384.37 160.19)"  >
<path style="stroke: rgb(0,0,0); stroke-width: 0; stroke-dasharray: none; stroke-linecap: butt; stroke-dashoffset: 0; stroke-linejoin: miter; stroke-miterlimit: 4; fill: rgb(0,0,0); fill-rule: nonzero; opacity: 1;"  transform=" translate(-300.5, -215.67)" d="M 21 287 Q 22 293 24 303 T 36 341 T 56 388 T 89 425 T 135 442 Q 171 442 195 424 T 225 390 T 231 369 Q 231 367 232 367 L 243 378 Q 304 442 382 442 Q 436 442 469 415 T 503 336 T 465 179 T 427 52 Q 427 26 444 26 Q 450 26 453 27 Q 482 32 505 65 T 540 145 Q 542 153 560 153 Q 580 153 580 145 Q 580 144 576 130 Q 568 101 554 73 T 508 17 T 439 -10 Q 392 -10 371 17 T 350 73 Q 350 92 386 193 T 423 345 Q 423 404 379 404 H 374 Q 288 404 229 303 L 222 291 L 189 157 Q 156 26 151 16 Q 138 -11 108 -11 Q 95 -11 87 -5 T 76 7 T 74 17 Q 74 30 112 180 T 152 343 Q 153 348 153 366 Q 153 405 129 405 Q 91 405 66 305 Q 60 285 60 284 Q 58 278 41 278 H 27 Q 21 284 21 287 Z" stroke-linecap="round" />
</g>
<g transform="matrix(0.04 0 0 -0.04 495.78 150.32)"  >
<path style="stroke: rgb(0,0,0); stroke-width: 0; stroke-dasharray: none; stroke-linecap: butt; stroke-dashoffset: 0; stroke-linejoin: miter; stroke-miterlimit: 4; fill: rgb(0,0,0); fill-rule: nonzero; opacity: 1;"  transform=" translate(-389, -250)" d="M 84 237 T 84 250 T 98 270 H 679 Q 694 262 694 250 T 679 230 H 98 Q 84 237 84 250 Z" stroke-linecap="round" />
</g>
<g transform="matrix(0.04 0 0 -0.04 519.1 148.29)"  >
<path style="stroke: rgb(0,0,0); stroke-width: 0; stroke-dasharray: none; stroke-linecap: butt; stroke-dashoffset: 0; stroke-linejoin: miter; stroke-miterlimit: 4; fill: rgb(0,0,0); fill-rule: nonzero; opacity: 1;"  transform=" translate(-265, -341.5)" d="M 43 1 Q 26 1 26 10 Q 26 12 29 24 Q 34 43 39 45 Q 42 46 54 46 H 60 Q 120 46 136 53 Q 137 53 138 54 Q 143 56 149 77 T 198 273 Q 210 318 216 344 Q 286 624 286 626 Q 284 630 284 631 Q 274 637 213 637 H 193 Q 184 643 189 662 Q 193 677 195 680 T 209 683 H 213 Q 285 681 359 681 Q 481 681 487 683 H 497 Q 504 676 504 672 T 501 655 T 494 639 Q 491 637 471 637 Q 440 637 407 634 Q 393 631 388 623 Q 381 609 337 432 Q 326 385 315 341 Q 245 65 245 59 Q 245 52 255 50 T 307 46 H 339 Q 345 38 345 37 T 342 19 Q 338 6 332 0 H 316 Q 279 2 179 2 Q 143 2 113 2 T 65 2 T 43 1 Z" stroke-linecap="round" />
</g>
<g transform="matrix(0.04 0 0 -0.04 689.24 150.32)"  >
<path style="stroke: rgb(0,0,0); stroke-width: 0; stroke-dasharray: none; stroke-linecap: butt; stroke-dashoffset: 0; stroke-linejoin: miter; stroke-miterlimit: 4; fill: rgb(0,0,0); fill-rule: nonzero; opacity: 1;"  transform=" translate(-389, -250)" d="M 84 237 T 84 250 T 98 270 H 679 Q 694 262 694 250 T 679 230 H 98 Q 84 237 84 250 Z" stroke-linecap="round" />
</g>
<g transform="matrix(0.04 0 0 -0.04 712.56 148.29)"  >
<path style="stroke: rgb(0,0,0); stroke-width: 0; stroke-dasharray: none; stroke-linecap: butt; stroke-dashoffset: 0; stroke-linejoin: miter; stroke-miterlimit: 4; fill: rgb(0,0,0); fill-rule: nonzero; opacity: 1;"  transform=" translate(-265, -341.5)" d="M 43 1 Q 26 1 26 10 Q 26 12 29 24 Q 34 43 39 45 Q 42 46 54 46 H 60 Q 120 46 136 53 Q 137 53 138 54 Q 143 56 149 77 T 198 273 Q 210 318 216 344 Q 286 624 286 626 Q 284 630 284 631 Q 274 637 213 637 H 193 Q 184 643 189 662 Q 193 677 195 680 T 209 683 H 213 Q 285 681 359 681 Q 481 681 487 683 H 497 Q 504 676 504 672 T 501 655 T 494 639 Q 491 637 471 637 Q 440 637 407 634 Q 393 631 388 623 Q 381 609 337 432 Q 326 385 315 341 Q 245 65 245 59 Q 245 52 255 50 T 307 46 H 339 Q 345 38 345 37 T 342 19 Q 338 6 332 0 H 316 Q 279 2 179 2 Q 143 2 113 2 T 65 2 T 43 1 Z" stroke-linecap="round" />
</g>
<g transform="matrix(0.04 0 0 -0.04 320.81 210.02)"  >
<path style="stroke: rgb(0,0,0); stroke-width: 0; stroke-dasharray: none; stroke-linecap: butt; stroke-dashoffset: 0; stroke-linejoin: miter; stroke-miterlimit: 4; fill: rgb(0,0,0); fill-rule: nonzero; opacity: 1;"  transform=" translate(-389, -250)" d="M 84 237 T 84 250 T 98 270 H 679 Q 694 262 694 250 T 679 230 H 98 Q 84 237 84 250 Z" stroke-linecap="round" />
</g>
<g transform="matrix(0.04 0 0 -0.04 344.12 207.99)"  >
<path style="stroke: rgb(0,0,0); stroke-width: 0; stroke-dasharray: none; stroke-linecap: butt; stroke-dashoffset: 0; stroke-linejoin: miter; stroke-miterlimit: 4; fill: rgb(0,0,0); fill-rule: nonzero; opacity: 1;"  transform=" translate(-265, -341.5)" d="M 43 1 Q 26 1 26 10 Q 26 12 29 24 Q 34 43 39 45 Q 42 46 54 46 H 60 Q 120 46 136 53 Q 137 53 138 54 Q 143 56 149 77 T 198 273 Q 210 318 216 344 Q 286 624 286 626 Q 284 630 284 631 Q 274 637 213 637 H 193 Q 184 643 189 662 Q 193 677 195 680 T 209 683 H 213 Q 285 681 359 681 Q 481 681 487 683 H 497 Q 504 676 504 672 T 501 655 T 494 639 Q 491 637 471 637 Q 440 637 407 634 Q 393 631 388 623 Q 381 609 337 432 Q 326 385 315 341 Q 245 65 245 59 Q 245 52 255 50 T 307 46 H 339 Q 345 38 345 37 T 342 19 Q 338 6 332 0 H 316 Q 279 2 179 2 Q 143 2 113 2 T 65 2 T 43 1 Z" stroke-linecap="round" />
</g>
<g transform="matrix(0.04 0 0 -0.04 440.48 208.05)"  >
<path style="stroke: rgb(0,0,0); stroke-width: 0; stroke-dasharray: none; stroke-linecap: butt; stroke-dashoffset: 0; stroke-linejoin: miter; stroke-miterlimit: 4; fill: rgb(0,0,0); fill-rule: nonzero; opacity: 1;"  transform=" translate(-301.83, -341)" d="M 166 673 Q 166 685 183 694 H 202 Q 292 691 316 644 Q 322 629 373 486 T 474 207 T 524 67 Q 531 47 537 34 T 546 15 T 551 6 T 555 2 T 556 -2 T 550 -11 H 482 Q 457 3 450 18 T 399 152 L 354 277 L 340 262 Q 327 246 293 207 T 236 141 Q 211 112 174 69 Q 123 9 111 -1 T 83 -12 Q 47 -12 47 20 Q 47 37 61 52 T 199 187 Q 229 216 266 252 T 321 306 L 338 322 Q 338 323 288 462 T 234 612 Q 214 657 183 657 Q 166 657 166 673 Z" stroke-linecap="round" />
</g>
<g transform="matrix(0.04 0 0 -0.04 460.11 207.99)"  >
<path style="stroke: rgb(0,0,0); stroke-width: 0; stroke-dasharray: none; stroke-linecap: butt; stroke-dashoffset: 0; stroke-linejoin: miter; stroke-miterlimit: 4; fill: rgb(0,0,0); fill-rule: nonzero; opacity: 1;"  transform=" translate(-265, -341.5)" d="M 43 1 Q 26 1 26 10 Q 26 12 29 24 Q 34 43 39 45 Q 42 46 54 46 H 60 Q 120 46 136 53 Q 137 53 138 54 Q 143 56 149 77 T 198 273 Q 210 318 216 344 Q 286 624 286 626 Q 284 630 284 631 Q 274 637 213 637 H 193 Q 184 643 189 662 Q 193 677 195 680 T 209 683 H 213 Q 285 681 359 681 Q 481 681 487 683 H 497 Q 504 676 504 672 T 501 655 T 494 639 Q 491 637 471 637 Q 440 637 407 634 Q 393 631 388 623 Q 381 609 337 432 Q 326 385 315 341 Q 245 65 245 59 Q 245 52 255 50 T 307 46 H 339 Q 345 38 345 37 T 342 19 Q 338 6 332 0 H 316 Q 279 2 179 2 Q 143 2 113 2 T 65 2 T 43 1 Z" stroke-linecap="round" />
</g>
<g transform="matrix(0.04 0 0 -0.04 491.02 210.02)"  >
<path style="stroke: rgb(0,0,0); stroke-width: 0; stroke-dasharray: none; stroke-linecap: butt; stroke-dashoffset: 0; stroke-linejoin: miter; stroke-miterlimit: 4; fill: rgb(0,0,0); fill-rule: nonzero; opacity: 1;"  transform=" translate(-389, -250)" d="M 84 237 T 84 250 T 98 270 H 679 Q 694 262 694 250 T 679 230 H 98 Q 84 237 84 250 Z" stroke-linecap="round" />
</g>
<g transform="matrix(0.04 0 0 -0.04 524.17 212.06)"  >
<path style="stroke: rgb(0,0,0); stroke-width: 0; stroke-dasharray: none; stroke-linecap: butt; stroke-dashoffset: 0; stroke-linejoin: miter; stroke-miterlimit: 4; fill: rgb(0,0,0); fill-rule: nonzero; opacity: 1;"  transform=" translate(-309.5, -215.88)" d="M 495 384 Q 495 406 514 424 T 555 443 Q 574 443 589 425 T 604 364 Q 604 334 592 278 T 555 155 T 483 38 T 377 -11 Q 297 -11 267 66 Q 266 68 260 61 Q 201 -11 125 -11 Q 15 -11 15 139 Q 15 230 56 325 T 123 434 Q 135 441 147 436 Q 160 429 160 418 Q 160 406 140 379 T 94 306 T 62 208 Q 61 202 61 187 Q 61 124 85 100 T 143 76 Q 201 76 245 129 L 253 137 V 156 Q 258 297 317 297 Q 348 297 348 261 Q 348 243 338 213 T 318 158 L 308 135 Q 309 133 310 129 T 318 115 T 334 97 T 358 83 T 393 76 Q 456 76 501 148 T 546 274 Q 546 305 533 325 T 508 357 T 495 384 Z" stroke-linecap="round" />
</g>
<g transform="matrix(0.04 0 0 -0.04 549.95 207.99)"  >
<path style="stroke: rgb(0,0,0); stroke-width: 0; stroke-dasharray: none; stroke-linecap: butt; stroke-dashoffset: 0; stroke-linejoin: miter; stroke-miterlimit: 4; fill: rgb(0,0,0); fill-rule: nonzero; opacity: 1;"  transform=" translate(-395.5, -341.5)" d="M 231 637 Q 204 637 199 638 T 194 649 Q 194 676 205 682 Q 206 683 335 683 Q 594 683 608 681 Q 671 671 713 636 T 756 544 Q 756 480 698 429 T 565 360 L 555 357 Q 619 348 660 311 T 702 219 Q 702 146 630 78 T 453 1 Q 446 0 242 0 Q 42 0 39 2 Q 35 5 35 10 Q 35 17 37 24 Q 42 43 47 45 Q 51 46 62 46 H 68 Q 95 46 128 49 Q 142 52 147 61 Q 150 65 219 339 T 288 628 Q 288 635 231 637 Z M 649 544 Q 649 574 634 600 T 585 634 Q 578 636 493 637 Q 473 637 451 637 T 416 636 H 403 Q 388 635 384 626 Q 382 622 352 506 Q 352 503 351 500 L 320 374 H 401 Q 482 374 494 376 Q 554 386 601 434 T 649 544 Z M 595 229 Q 595 273 572 302 T 512 336 Q 506 337 429 337 Q 311 337 310 336 Q 310 334 293 263 T 258 122 L 240 52 Q 240 48 252 48 T 333 46 Q 422 46 429 47 Q 491 54 543 105 T 595 229 Z" stroke-linecap="round" />
</g>
<g transform="matrix(0.04 0 0 -0.04 551.48 189.55)"  >
<path style="stroke: rgb(0,0,0); stroke-width: 0; stroke-dasharray: none; stroke-linecap: butt; stroke-dashoffset: 0; stroke-linejoin: miter; stroke-miterlimit: 4; fill: rgb(0,0,0); fill-rule: nonzero; opacity: 1;"  transform=" translate(-249.5, -612.5)" d="M 112 560 L 249 694 L 257 686 Q 387 562 387 560 L 361 531 Q 359 532 303 581 L 250 627 L 195 580 Q 182 569 169 557 T 148 538 L 140 532 Q 138 530 125 546 L 112 560 Z" stroke-linecap="round" />
</g>
<g transform="matrix(0.03 0 0 -0.03 570.55 219.88)"  >
<path style="stroke: rgb(0,0,0); stroke-width: 0; stroke-dasharray: none; stroke-linecap: butt; stroke-dashoffset: 0; stroke-linejoin: miter; stroke-miterlimit: 4; fill: rgb(0,0,0); fill-rule: nonzero; opacity: 1;"  transform=" translate(-300.5, -215.67)" d="M 21 287 Q 22 293 24 303 T 36 341 T 56 388 T 89 425 T 135 442 Q 171 442 195 424 T 225 390 T 231 369 Q 231 367 232 367 L 243 378 Q 304 442 382 442 Q 436 442 469 415 T 503 336 T 465 179 T 427 52 Q 427 26 444 26 Q 450 26 453 27 Q 482 32 505 65 T 540 145 Q 542 153 560 153 Q 580 153 580 145 Q 580 144 576 130 Q 568 101 554 73 T 508 17 T 439 -10 Q 392 -10 371 17 T 350 73 Q 350 92 386 193 T 423 345 Q 423 404 379 404 H 374 Q 288 404 229 303 L 222 291 L 189 157 Q 156 26 151 16 Q 138 -11 108 -11 Q 95 -11 87 -5 T 76 7 T 74 17 Q 74 30 112 180 T 152 343 Q 153 348 153 366 Q 153 405 129 405 Q 91 405 66 305 Q 60 285 60 284 Q 58 278 41 278 H 27 Q 21 284 21 287 Z" stroke-linecap="round" />
</g>
<g transform="matrix(0.04 0 0 -0.04 689.24 210.02)"  >
<path style="stroke: rgb(0,0,0); stroke-width: 0; stroke-dasharray: none; stroke-linecap: butt; stroke-dashoffset: 0; stroke-linejoin: miter; stroke-miterlimit: 4; fill: rgb(0,0,0); fill-rule: nonzero; opacity: 1;"  transform=" translate(-389, -250)" d="M 84 237 T 84 250 T 98 270 H 679 Q 694 262 694 250 T 679 230 H 98 Q 84 237 84 250 Z" stroke-linecap="round" />
</g>
<g transform="matrix(0.04 0 0 -0.04 712.56 207.99)"  >
<path style="stroke: rgb(0,0,0); stroke-width: 0; stroke-dasharray: none; stroke-linecap: butt; stroke-dashoffset: 0; stroke-linejoin: miter; stroke-miterlimit: 4; fill: rgb(0,0,0); fill-rule: nonzero; opacity: 1;"  transform=" translate(-265, -341.5)" d="M 43 1 Q 26 1 26 10 Q 26 12 29 24 Q 34 43 39 45 Q 42 46 54 46 H 60 Q 120 46 136 53 Q 137 53 138 54 Q 143 56 149 77 T 198 273 Q 210 318 216 344 Q 286 624 286 626 Q 284 630 284 631 Q 274 637 213 637 H 193 Q 184 643 189 662 Q 193 677 195 680 T 209 683 H 213 Q 285 681 359 681 Q 481 681 487 683 H 497 Q 504 676 504 672 T 501 655 T 494 639 Q 491 637 471 637 Q 440 637 407 634 Q 393 631 388 623 Q 381 609 337 432 Q 326 385 315 341 Q 245 65 245 59 Q 245 52 255 50 T 307 46 H 339 Q 345 38 345 37 T 342 19 Q 338 6 332 0 H 316 Q 279 2 179 2 Q 143 2 113 2 T 65 2 T 43 1 Z" stroke-linecap="round" />
</g>
<g transform="matrix(0.04 0 0 -0.04 320.81 269.72)"  >
<path style="stroke: rgb(0,0,0); stroke-width: 0; stroke-dasharray: none; stroke-linecap: butt; stroke-dashoffset: 0; stroke-linejoin: miter; stroke-miterlimit: 4; fill: rgb(0,0,0); fill-rule: nonzero; opacity: 1;"  transform=" translate(-389, -250)" d="M 84 237 T 84 250 T 98 270 H 679 Q 694 262 694 250 T 679 230 H 98 Q 84 237 84 250 Z" stroke-linecap="round" />
</g>
<g transform="matrix(0.04 0 0 -0.04 344.12 267.69)"  >
<path style="stroke: rgb(0,0,0); stroke-width: 0; stroke-dasharray: none; stroke-linecap: butt; stroke-dashoffset: 0; stroke-linejoin: miter; stroke-miterlimit: 4; fill: rgb(0,0,0); fill-rule: nonzero; opacity: 1;"  transform=" translate(-265, -341.5)" d="M 43 1 Q 26 1 26 10 Q 26 12 29 24 Q 34 43 39 45 Q 42 46 54 46 H 60 Q 120 46 136 53 Q 137 53 138 54 Q 143 56 149 77 T 198 273 Q 210 318 216 344 Q 286 624 286 626 Q 284 630 284 631 Q 274 637 213 637 H 193 Q 184 643 189 662 Q 193 677 195 680 T 209 683 H 213 Q 285 681 359 681 Q 481 681 487 683 H 497 Q 504 676 504 672 T 501 655 T 494 639 Q 491 637 471 637 Q 440 637 407 634 Q 393 631 388 623 Q 381 609 337 432 Q 326 385 315 341 Q 245 65 245 59 Q 245 52 255 50 T 307 46 H 339 Q 345 38 345 37 T 342 19 Q 338 6 332 0 H 316 Q 279 2 179 2 Q 143 2 113 2 T 65 2 T 43 1 Z" stroke-linecap="round" />
</g>
<g transform="matrix(0.04 0 0 -0.04 495.78 269.72)"  >
<path style="stroke: rgb(0,0,0); stroke-width: 0; stroke-dasharray: none; stroke-linecap: butt; stroke-dashoffset: 0; stroke-linejoin: miter; stroke-miterlimit: 4; fill: rgb(0,0,0); fill-rule: nonzero; opacity: 1;"  transform=" translate(-389, -250)" d="M 84 237 T 84 250 T 98 270 H 679 Q 694 262 694 250 T 679 230 H 98 Q 84 237 84 250 Z" stroke-linecap="round" />
</g>
<g transform="matrix(0.04 0 0 -0.04 519.1 267.69)"  >
<path style="stroke: rgb(0,0,0); stroke-width: 0; stroke-dasharray: none; stroke-linecap: butt; stroke-dashoffset: 0; stroke-linejoin: miter; stroke-miterlimit: 4; fill: rgb(0,0,0); fill-rule: nonzero; opacity: 1;"  transform=" translate(-265, -341.5)" d="M 43 1 Q 26 1 26 10 Q 26 12 29 24 Q 34 43 39 45 Q 42 46 54 46 H 60 Q 120 46 136 53 Q 137 53 138 54 Q 143 56 149 77 T 198 273 Q 210 318 216 344 Q 286 624 286 626 Q 284 630 284 631 Q 274 637 213 637 H 193 Q 184 643 189 662 Q 193 677 195 680 T 209 683 H 213 Q 285 681 359 681 Q 481 681 487 683 H 497 Q 504 676 504 672 T 501 655 T 494 639 Q 491 637 471 637 Q 440 637 407 634 Q 393 631 388 623 Q 381 609 337 432 Q 326 385 315 341 Q 245 65 245 59 Q 245 52 255 50 T 307 46 H 339 Q 345 38 345 37 T 342 19 Q 338 6 332 0 H 316 Q 279 2 179 2 Q 143 2 113 2 T 65 2 T 43 1 Z" stroke-linecap="round" />
</g>
<g transform="matrix(0.04 0 0 -0.04 626.66 267.75)"  >
<path style="stroke: rgb(0,0,0); stroke-width: 0; stroke-dasharray: none; stroke-linecap: butt; stroke-dashoffset: 0; stroke-linejoin: miter; stroke-miterlimit: 4; fill: rgb(0,0,0); fill-rule: nonzero; opacity: 1;"  transform=" translate(-301.83, -341)" d="M 166 673 Q 166 685 183 694 H 202 Q 292 691 316 644 Q 322 629 373 486 T 474 207 T 524 67 Q 531 47 537 34 T 546 15 T 551 6 T 555 2 T 556 -2 T 550 -11 H 482 Q 457 3 450 18 T 399 152 L 354 277 L 340 262 Q 327 246 293 207 T 236 141 Q 211 112 174 69 Q 123 9 111 -1 T 83 -12 Q 47 -12 47 20 Q 47 37 61 52 T 199 187 Q 229 216 266 252 T 321 306 L 338 322 Q 338 323 288 462 T 234 612 Q 214 657 183 657 Q 166 657 166 673 Z" stroke-linecap="round" />
</g>
<g transform="matrix(0.04 0 0 -0.04 646.29 267.69)"  >
<path style="stroke: rgb(0,0,0); stroke-width: 0; stroke-dasharray: none; stroke-linecap: butt; stroke-dashoffset: 0; stroke-linejoin: miter; stroke-miterlimit: 4; fill: rgb(0,0,0); fill-rule: nonzero; opacity: 1;"  transform=" translate(-265, -341.5)" d="M 43 1 Q 26 1 26 10 Q 26 12 29 24 Q 34 43 39 45 Q 42 46 54 46 H 60 Q 120 46 136 53 Q 137 53 138 54 Q 143 56 149 77 T 198 273 Q 210 318 216 344 Q 286 624 286 626 Q 284 630 284 631 Q 274 637 213 637 H 193 Q 184 643 189 662 Q 193 677 195 680 T 209 683 H 213 Q 285 681 359 681 Q 481 681 487 683 H 497 Q 504 676 504 672 T 501 655 T 494 639 Q 491 637 471 637 Q 440 637 407 634 Q 393 631 388 623 Q 381 609 337 432 Q 326 385 315 341 Q 245 65 245 59 Q 245 52 255 50 T 307 46 H 339 Q 345 38 345 37 T 342 19 Q 338 6 332 0 H 316 Q 279 2 179 2 Q 143 2 113 2 T 65 2 T 43 1 Z" stroke-linecap="round" />
</g>
<g transform="matrix(0.04 0 0 -0.04 677.2 269.72)"  >
<path style="stroke: rgb(0,0,0); stroke-width: 0; stroke-dasharray: none; stroke-linecap: butt; stroke-dashoffset: 0; stroke-linejoin: miter; stroke-miterlimit: 4; fill: rgb(0,0,0); fill-rule: nonzero; opacity: 1;"  transform=" translate(-389, -250)" d="M 84 237 T 84 250 T 98 270 H 679 Q 694 262 694 250 T 679 230 H 98 Q 84 237 84 250 Z" stroke-linecap="round" />
</g>
<g transform="matrix(0.04 0 0 -0.04 710.35 271.76)"  >
<path style="stroke: rgb(0,0,0); stroke-width: 0; stroke-dasharray: none; stroke-linecap: butt; stroke-dashoffset: 0; stroke-linejoin: miter; stroke-miterlimit: 4; fill: rgb(0,0,0); fill-rule: nonzero; opacity: 1;"  transform=" translate(-309.5, -215.88)" d="M 495 384 Q 495 406 514 424 T 555 443 Q 574 443 589 425 T 604 364 Q 604 334 592 278 T 555 155 T 483 38 T 377 -11 Q 297 -11 267 66 Q 266 68 260 61 Q 201 -11 125 -11 Q 15 -11 15 139 Q 15 230 56 325 T 123 434 Q 135 441 147 436 Q 160 429 160 418 Q 160 406 140 379 T 94 306 T 62 208 Q 61 202 61 187 Q 61 124 85 100 T 143 76 Q 201 76 245 129 L 253 137 V 156 Q 258 297 317 297 Q 348 297 348 261 Q 348 243 338 213 T 318 158 L 308 135 Q 309 133 310 129 T 318 115 T 334 97 T 358 83 T 393 76 Q 456 76 501 148 T 546 274 Q 546 305 533 325 T 508 357 T 495 384 Z" stroke-linecap="round" />
</g>
<g transform="matrix(0.03 0 0 -0.03 727.72 258.58)"  >
<path style="stroke: rgb(0,0,0); stroke-width: 0; stroke-dasharray: none; stroke-linecap: butt; stroke-dashoffset: 0; stroke-linejoin: miter; stroke-miterlimit: 4; fill: rgb(0,0,0); fill-rule: nonzero; opacity: 1;"  transform=" translate(-249.5, -333)" d="M 109 429 Q 82 429 66 447 T 50 491 Q 50 562 103 614 T 235 666 Q 326 666 387 610 T 449 465 Q 449 422 429 383 T 381 315 T 301 241 Q 265 210 201 149 L 142 93 L 218 92 Q 375 92 385 97 Q 392 99 409 186 V 189 H 449 V 186 Q 448 183 436 95 T 421 3 V 0 H 50 V 19 V 31 Q 50 38 56 46 T 86 81 Q 115 113 136 137 Q 145 147 170 174 T 204 211 T 233 244 T 261 278 T 284 308 T 305 340 T 320 369 T 333 401 T 340 431 T 343 464 Q 343 527 309 573 T 212 619 Q 179 619 154 602 T 119 569 T 109 550 Q 109 549 114 549 Q 132 549 151 535 T 170 489 Q 170 464 154 447 T 109 429 Z" stroke-linecap="round" />
</g>
<g transform="matrix(0.04 0 0 -0.04 750.69 267.69)"  >
<path style="stroke: rgb(0,0,0); stroke-width: 0; stroke-dasharray: none; stroke-linecap: butt; stroke-dashoffset: 0; stroke-linejoin: miter; stroke-miterlimit: 4; fill: rgb(0,0,0); fill-rule: nonzero; opacity: 1;"  transform=" translate(-395.5, -341.5)" d="M 231 637 Q 204 637 199 638 T 194 649 Q 194 676 205 682 Q 206 683 335 683 Q 594 683 608 681 Q 671 671 713 636 T 756 544 Q 756 480 698 429 T 565 360 L 555 357 Q 619 348 660 311 T 702 219 Q 702 146 630 78 T 453 1 Q 446 0 242 0 Q 42 0 39 2 Q 35 5 35 10 Q 35 17 37 24 Q 42 43 47 45 Q 51 46 62 46 H 68 Q 95 46 128 49 Q 142 52 147 61 Q 150 65 219 339 T 288 628 Q 288 635 231 637 Z M 649 544 Q 649 574 634 600 T 585 634 Q 578 636 493 637 Q 473 637 451 637 T 416 636 H 403 Q 388 635 384 626 Q 382 622 352 506 Q 352 503 351 500 L 320 374 H 401 Q 482 374 494 376 Q 554 386 601 434 T 649 544 Z M 595 229 Q 595 273 572 302 T 512 336 Q 506 337 429 337 Q 311 337 310 336 Q 310 334 293 263 T 258 122 L 240 52 Q 240 48 252 48 T 333 46 Q 422 46 429 47 Q 491 54 543 105 T 595 229 Z" stroke-linecap="round" />
</g>
<g transform="matrix(0.04 0 0 -0.04 752.22 249.25)"  >
<path style="stroke: rgb(0,0,0); stroke-width: 0; stroke-dasharray: none; stroke-linecap: butt; stroke-dashoffset: 0; stroke-linejoin: miter; stroke-miterlimit: 4; fill: rgb(0,0,0); fill-rule: nonzero; opacity: 1;"  transform=" translate(-249.5, -612.5)" d="M 112 560 L 249 694 L 257 686 Q 387 562 387 560 L 361 531 Q 359 532 303 581 L 250 627 L 195 580 Q 182 569 169 557 T 148 538 L 140 532 Q 138 530 125 546 L 112 560 Z" stroke-linecap="round" />
</g>
<g transform="matrix(0.03 0 0 -0.03 771.28 279.58)"  >
<path style="stroke: rgb(0,0,0); stroke-width: 0; stroke-dasharray: none; stroke-linecap: butt; stroke-dashoffset: 0; stroke-linejoin: miter; stroke-miterlimit: 4; fill: rgb(0,0,0); fill-rule: nonzero; opacity: 1;"  transform=" translate(-300.5, -215.67)" d="M 21 287 Q 22 293 24 303 T 36 341 T 56 388 T 89 425 T 135 442 Q 171 442 195 424 T 225 390 T 231 369 Q 231 367 232 367 L 243 378 Q 304 442 382 442 Q 436 442 469 415 T 503 336 T 465 179 T 427 52 Q 427 26 444 26 Q 450 26 453 27 Q 482 32 505 65 T 540 145 Q 542 153 560 153 Q 580 153 580 145 Q 580 144 576 130 Q 568 101 554 73 T 508 17 T 439 -10 Q 392 -10 371 17 T 350 73 Q 350 92 386 193 T 423 345 Q 423 404 379 404 H 374 Q 288 404 229 303 L 222 291 L 189 157 Q 156 26 151 16 Q 138 -11 108 -11 Q 95 -11 87 -5 T 76 7 T 74 17 Q 74 30 112 180 T 152 343 Q 153 348 153 366 Q 153 405 129 405 Q 91 405 66 305 Q 60 285 60 284 Q 58 278 41 278 H 27 Q 21 284 21 287 Z" stroke-linecap="round" />
</g>
<g transform="matrix(0.04 0 0 -0.25 785.55 206.69)"  >
<path style="stroke: rgb(0,0,0); stroke-width: 0; stroke-dasharray: none; stroke-linecap: butt; stroke-dashoffset: 0; stroke-linejoin: miter; stroke-miterlimit: 4; fill: rgb(0,0,0); fill-rule: nonzero; opacity: 1;"  transform=" translate(-139, -250.5)" d="M 139 -249 H 137 Q 125 -249 119 -235 V 251 L 120 737 Q 130 750 139 750 Q 152 750 159 735 V -235 Q 151 -249 141 -249 H 139 Z" stroke-linecap="round" />
</g>
<g transform="matrix(1 0 0 1 422.95 179.35)"  >
<line style="stroke: rgb(56,182,255); stroke-width: 1; stroke-dasharray: none; stroke-linecap: butt; stroke-dashoffset: 0; stroke-linejoin: miter; stroke-miterlimit: 4; fill: rgb(0,0,0); fill-rule: nonzero; opacity: 1;"  x1="-94" y1="29.981238273921207" x2="94" y2="-29.981238273921207" />
</g>
<g transform="matrix(1 0 0 1 612.45 210.33)"  >
<line style="stroke: rgb(56,182,255); stroke-width: 1; stroke-dasharray: none; stroke-linecap: butt; stroke-dashoffset: 0; stroke-linejoin: miter; stroke-miterlimit: 4; fill: rgb(0,0,0); fill-rule: nonzero; opacity: 1;"  x1="-95.5" y1="-60.961851156973125" x2="95.5" y2="60.961851156973125" />
</g>
<g transform="matrix(1 0 0 1 516.45 240.81)"  >
<line style="stroke: rgb(56,182,255); stroke-width: 1; stroke-dasharray: none; stroke-linecap: butt; stroke-dashoffset: 0; stroke-linejoin: miter; stroke-miterlimit: 4; fill: rgb(0,0,0); fill-rule: nonzero; opacity: 1;"  x1="191.5" y1="30.480925578486563" x2="-191.5" y2="-30.480925578486563" />
</g>
<g transform="matrix(1 0 0 1 608.95 242.81)"  >
<line style="stroke: rgb(255,102,196); stroke-width: 1; stroke-dasharray: none; stroke-linecap: butt; stroke-dashoffset: 0; stroke-linejoin: miter; stroke-miterlimit: 4; fill: rgb(0,0,0); fill-rule: nonzero; opacity: 1;"  x1="-92" y1="32.47967479674796" x2="92" y2="-32.47967479674796" />
</g>
<g transform="matrix(1 0 0 1 514.95 180.35)"  >
<line style="stroke: rgb(255,102,196); stroke-width: 1; stroke-dasharray: none; stroke-linecap: butt; stroke-dashoffset: 0; stroke-linejoin: miter; stroke-miterlimit: 4; fill: rgb(0,0,0); fill-rule: nonzero; opacity: 1;"  x1="186" y1="29.981238273921207" x2="-186" y2="-29.981238273921207" />
</g>
<g transform="matrix(1 0 0 1 422.95 212.83)"  >
<line style="stroke: rgb(255,102,196); stroke-width: 1; stroke-dasharray: none; stroke-linecap: butt; stroke-dashoffset: 0; stroke-linejoin: miter; stroke-miterlimit: 4; fill: rgb(0,0,0); fill-rule: nonzero; opacity: 1;"  x1="-94" y1="-62.460913070669164" x2="94" y2="62.460913070669164" />
</g>
<g transform="matrix(1 0 0 1 511.45 210.33)"  >
<line style="stroke: rgb(126,217,87); stroke-width: 1; stroke-dasharray: none; stroke-linecap: butt; stroke-dashoffset: 0; stroke-linejoin: miter; stroke-miterlimit: 4; fill: rgb(0,0,0); fill-rule: nonzero; opacity: 1;"  x1="-186.5" y1="58.96310193871169" x2="186.5" y2="-58.96310193871169" />
</g>
</svg>