<?xml version="1.0" encoding="UTF-8" standalone="no" ?>
<!DOCTYPE svg PUBLIC "-//W3C//DTD SVG 1.1//EN" "http://www.w3.org/Graphics/SVG/1.1/DTD/svg11.dtd">
<svg xmlns="http://www.w3.org/2000/svg" xmlns:xlink="http://www.w3.org/1999/xlink" version="1.1" width="800" height="320" viewBox="0 0 800 320" xml:space="preserve">
<desc>Created with Fabric.js 3.6.1</desc>
<defs>
</defs>
<g transform="matrix(0.39 0 0 0.39 214.47 148.29)"  >
<path style="stroke: rgb(0,0,0); stroke-width: 1; stroke-dasharray: none; stroke-linecap: butt; stroke-dashoffset: 0; stroke-linejoin: miter; stroke-miterlimit: 4; fill: rgb(0,0,0); fill-opacity: 0; fill-rule: nonzero; opacity: 1;"  transform=" translate(-100, -99.75)" d="m 90.953904 160.950005 l 31.55114 -37.799994 l -61.002589 0 l -61.002455 0 l 0 -23.399987 l 0 -23.400011 l 60.302634 0 c 33.166402 0 60.302587 -1.186023 60.302587 -2.635615 c 0 -1.44956 -13.203441 -18.459564 -29.340945 -37.799986 l -29.341038 -35.164412 l 27.120085 0 l 27.119985 0 l 41.41836 49.54742 l 41.41834 49.547396 l -41.497792 49.452595 l -41.497779 49.452595 l -28.550853 0 l -28.55092 0 l 31.551227 -37.80001 l 0.000013 0.000008 z" stroke-linecap="round" />
</g>
<g transform="matrix(0.39 0 0 0.39 479.03 151.61)"  >
<path style="stroke: rgb(0,0,0); stroke-width: 1; stroke-dasharray: none; stroke-linecap: butt; stroke-dashoffset: 0; stroke-linejoin: miter; stroke-miterlimit: 4; fill: rgb(0,0,0); fill-opacity: 0; fill-rule: nonzero; opacity: 1;"  transform=" translate(-100, -99.75)" d="m 90.953904 160.950005 l 31.55114 -37.799994 l -61.002589 0 l -61.002455 0 l 0 -23.399987 l 0 -23.400011 l 60.302634 0 c 33.166402 0 60.302587 -1.186023 60.302587 -2.635615 c 0 -1.44956 -13.203441 -18.459564 -29.340945 -37.799986 l -29.341038 -35.164412 l 27.120085 0 l 27.119985 0 l 41.41836 49.54742 l 41.41834 49.547396 l -41.497792 49.452595 l -41.497779 49.452595 l -28.550853 0 l -28.55092 0 l 31.551227 -37.80001 l 0.000013 0.000008 z" stroke-linecap="round" />
</g>
<g transform="matrix(1 0 0 1 90.83 148.36)"  >
<g style=""   >
		<g transform="matrix(1 0 0 1 -59.19 -0.25)"  >
<circle style="stroke: rgb(0,0,0); stroke-width: 1; stroke-dasharray: none; stroke-linecap: butt; stroke-dashoffset: 0; stroke-linejoin: miter; stroke-miterlimit: 4; fill: rgb(0,0,0); fill-opacity: 0; fill-rule: nonzero; opacity: 1;"  cx="0" cy="0" r="5.655085653639773" />
</g>
		<g transform="matrix(1 0 0 1 59.2 0.26)"  >
<circle style="stroke: rgb(0,0,0); stroke-width: 1; stroke-dasharray: none; stroke-linecap: butt; stroke-dashoffset: 0; stroke-linejoin: miter; stroke-miterlimit: 4; fill: rgb(0,0,0); fill-opacity: 0; fill-rule: nonzero; opacity: 1;"  cx="0" cy="0" r="5.655085653639773" />
</g>
		<g transform="matrix(1 0 0 1 -1.35 -0.42)"  >
<line style="stroke: rgb(0,0,0); stroke-width: 1; stroke-dasharray: none; stroke-linecap: butt; stroke-dashoffset: 0; stroke-linejoin: miter; stroke-miterlimit: 4; fill: rgb(0,0,0); fill-rule: nonzero; opacity: 1;"  x1="-53.5" y1="0.4996873045653558" x2="53.5" y2="-0.4996873045653558" />
</g>
</g>
</g>
<g transform="matrix(1 0 0 1 341.52 148.11)"  >
<g style=""   >
		<g transform="matrix(1 0 0 1 -0.55 -0.67)"  >
<path style="stroke: rgb(0,0,0); stroke-width: 1; stroke-dasharray: none; stroke-linecap: butt; stroke-dashoffset: 0; stroke-linejoin: miter; stroke-miterlimit: 4; fill: rgb(0,0,0); fill-opacity: 0; fill-rule: nonzero; opacity: 1;"  transform=" translate(-638.45, -267.83)" d="M 572.9479064941406 202.8730456535335 L 703.9479064941406 202.8730456535335 L 703.9479064941406 332.7917448405253 L 572.9479064941406 332.7917448405253 L 572.9479064941406 202.8730456535335 z" stroke-linecap="round" />
</g>
		<g transform="matrix(1 0 0 1 -66.5 65.46)"  >
<circle style="stroke: rgb(0,0,0); stroke-width: 1; stroke-dasharray: none; stroke-linecap: butt; stroke-dashoffset: 0; stroke-linejoin: miter; stroke-miterlimit: 4; fill: rgb(0,0,0); fill-opacity: 0; fill-rule: nonzero; opacity: 1;"  cx="0" cy="0" r="5.655085653639773" />
</g>
		<g transform="matrix(1 0 0 1 65.5 -65.46)"  >
<circle style="stroke: rgb(0,0,0); stroke-width: 1; stroke-dasharray: none; stroke-linecap: butt; stroke-dashoffset: 0; stroke-linejoin: miter; stroke-miterlimit: 4; fill: rgb(0,0,0); fill-opacity: 0; fill-rule: nonzero; opacity: 1;"  cx="0" cy="0" r="5.655085653639773" />
</g>
		<g transform="matrix(1 0 0 1 66.5 65.46)"  >
<circle style="stroke: rgb(0,0,0); stroke-width: 1; stroke-dasharray: none; stroke-linecap: butt; stroke-dashoffset: 0; stroke-linejoin: miter; stroke-miterlimit: 4; fill: rgb(0,0,0); fill-opacity: 0; fill-rule: nonzero; opacity: 1;"  cx="0" cy="0" r="5.655085653639773" />
</g>
		<g transform="matrix(1 0 0 1 -65.5 -65.46)"  >
<circle style="stroke: rgb(0,0,0); stroke-width: 1; stroke-dasharray: none; stroke-linecap: butt; stroke-dashoffset: 0; stroke-linejoin: miter; stroke-miterlimit: 4; fill: rgb(0,0,0); fill-opacity: 0; fill-rule: nonzero; opacity: 1;"  cx="0" cy="0" r="5.655085653639773" />
</g>
</g>
</g>
<g transform="matrix(0.77 0 0 0.28 647.92 91.04) matrix(1 0.01 -0.51 1 0 0)"  >
<g style=""   >
		<g transform="matrix(1 0 0 1 -0.55 -0.67)"  >
<path style="stroke: rgb(0,0,0); stroke-width: 1; stroke-dasharray: none; stroke-linecap: butt; stroke-dashoffset: 0; stroke-linejoin: miter; stroke-miterlimit: 4; fill: rgb(0,0,0); fill-opacity: 0; fill-rule: nonzero; opacity: 1;"  transform=" translate(-638.45, -267.83)" d="M 572.9479064941406 202.8730456535335 L 703.9479064941406 202.8730456535335 L 703.9479064941406 332.7917448405253 L 572.9479064941406 332.7917448405253 L 572.9479064941406 202.8730456535335 z" stroke-linecap="round" />
</g>
		<g transform="matrix(1 0 0 1 -66.5 65.46)"  >
<circle style="stroke: rgb(0,0,0); stroke-width: 1; stroke-dasharray: none; stroke-linecap: butt; stroke-dashoffset: 0; stroke-linejoin: miter; stroke-miterlimit: 4; fill: rgb(0,0,0); fill-opacity: 0; fill-rule: nonzero; opacity: 1;"  cx="0" cy="0" r="5.655085653639773" />
</g>
		<g transform="matrix(1 0 0 1 65.5 -65.46)"  >
<circle style="stroke: rgb(0,0,0); stroke-width: 1; stroke-dasharray: none; stroke-linecap: butt; stroke-dashoffset: 0; stroke-linejoin: miter; stroke-miterlimit: 4; fill: rgb(0,0,0); fill-opacity: 0; fill-rule: nonzero; opacity: 1;"  cx="0" cy="0" r="5.655085653639773" />
</g>
		<g transform="matrix(1 0 0 1 66.5 65.46)"  >
<circle style="stroke: rgb(0,0,0); stroke-width: 1; stroke-dasharray: none; stroke-linecap: butt; stroke-dashoffset: 0; stroke-linejoin: miter; stroke-miterlimit: 4; fill: rgb(0,0,0); fill-opacity: 0; fill-rule: nonzero; opacity: 1;"  cx="0" cy="0" r="5.655085653639773" />
</g>
		<g transform="matrix(1 0 0 1 -65.5 -65.46)"  >
<circle style="stroke: rgb(0,0,0); stroke-width: 1; stroke-dasharray: none; stroke-linecap: butt; stroke-dashoffset: 0; stroke-linejoin: miter; stroke-miterlimit: 4; fill: rgb(0,0,0); fill-opacity: 0; fill-rule: nonzero; opacity: 1;"  cx="0" cy="0" r="5.655085653639773" />
</g>
</g>
</g>
<g transform="matrix(0.79 0 0 0.79 622.28 161.65)"  >
<g style=""   >
		<g transform="matrix(1 0 0 1 -0.55 -0.67)"  >
<path style="stroke: rgb(0,0,0); stroke-width: 1; stroke-dasharray: none; stroke-linecap: butt; stroke-dashoffset: 0; stroke-linejoin: miter; stroke-miterlimit: 4; fill: rgb(0,0,0); fill-opacity: 0; fill-rule: nonzero; opacity: 1;"  transform=" translate(-638.45, -267.83)" d="M 572.9479064941406 202.8730456535335 L 703.9479064941406 202.8730456535335 L 703.9479064941406 332.7917448405253 L 572.9479064941406 332.7917448405253 L 572.9479064941406 202.8730456535335 z" stroke-linecap="round" />
</g>
		<g transform="matrix(1 0 0 1 -66.5 65.46)"  >
<circle style="stroke: rgb(0,0,0); stroke-width: 1; stroke-dasharray: none; stroke-linecap: butt; stroke-dashoffset: 0; stroke-linejoin: miter; stroke-miterlimit: 4; fill: rgb(0,0,0); fill-opacity: 0; fill-rule: nonzero; opacity: 1;"  cx="0" cy="0" r="5.655085653639773" />
</g>
		<g transform="matrix(1 0 0 1 65.5 -65.46)"  >
<circle style="stroke: rgb(0,0,0); stroke-width: 1; stroke-dasharray: none; stroke-linecap: butt; stroke-dashoffset: 0; stroke-linejoin: miter; stroke-miterlimit: 4; fill: rgb(0,0,0); fill-opacity: 0; fill-rule: nonzero; opacity: 1;"  cx="0" cy="0" r="5.655085653639773" />
</g>
		<g transform="matrix(1 0 0 1 66.5 65.46)"  >
<circle style="stroke: rgb(0,0,0); stroke-width: 1; stroke-dasharray: none; stroke-linecap: butt; stroke-dashoffset: 0; stroke-linejoin: miter; stroke-miterlimit: 4; fill: rgb(0,0,0); fill-opacity: 0; fill-rule: nonzero; opacity: 1;"  cx="0" cy="0" r="5.655085653639773" />
</g>
		<g transform="matrix(1 0 0 1 -65.5 -65.46)"  >
<circle style="stroke: rgb(0,0,0); stroke-width: 1; stroke-dasharray: none; stroke-linecap: butt; stroke-dashoffset: 0; stroke-linejoin: miter; stroke-miterlimit: 4; fill: rgb(0,0,0); fill-opacity: 0; fill-rule: nonzero; opacity: 1;"  cx="0" cy="0" r="5.655085653639773" />
</g>
</g>
</g>
<g transform="matrix(0.4 0 0 0.79 698.41 143.2) matrix(1 -0.38 0 1 0 0)"  >
<g style=""   >
		<g transform="matrix(1 0 0 1 -0.55 -0.67)"  >
<path style="stroke: rgb(0,0,0); stroke-width: 1; stroke-dasharray: none; stroke-linecap: butt; stroke-dashoffset: 0; stroke-linejoin: miter; stroke-miterlimit: 4; fill: rgb(0,0,0); fill-opacity: 0; fill-rule: nonzero; opacity: 1;"  transform=" translate(-638.45, -267.83)" d="M 572.9479064941406 202.8730456535335 L 703.9479064941406 202.8730456535335 L 703.9479064941406 332.7917448405253 L 572.9479064941406 332.7917448405253 L 572.9479064941406 202.8730456535335 z" stroke-linecap="round" />
</g>
		<g transform="matrix(1 0 0 1 -66.5 65.46)"  >
<circle style="stroke: rgb(0,0,0); stroke-width: 1; stroke-dasharray: none; stroke-linecap: butt; stroke-dashoffset: 0; stroke-linejoin: miter; stroke-miterlimit: 4; fill: rgb(0,0,0); fill-opacity: 0; fill-rule: nonzero; opacity: 1;"  cx="0" cy="0" r="5.655085653639773" />
</g>
		<g transform="matrix(1 0 0 1 65.5 -65.46)"  >
<circle style="stroke: rgb(0,0,0); stroke-width: 1; stroke-dasharray: none; stroke-linecap: butt; stroke-dashoffset: 0; stroke-linejoin: miter; stroke-miterlimit: 4; fill: rgb(0,0,0); fill-opacity: 0; fill-rule: nonzero; opacity: 1;"  cx="0" cy="0" r="5.655085653639773" />
</g>
		<g transform="matrix(1 0 0 1 66.5 65.46)"  >
<circle style="stroke: rgb(0,0,0); stroke-width: 1; stroke-dasharray: none; stroke-linecap: butt; stroke-dashoffset: 0; stroke-linejoin: miter; stroke-miterlimit: 4; fill: rgb(0,0,0); fill-opacity: 0; fill-rule: nonzero; opacity: 1;"  cx="0" cy="0" r="5.655085653639773" />
</g>
		<g transform="matrix(1 0 0 1 -65.5 -65.46)"  >
<circle style="stroke: rgb(0,0,0); stroke-width: 1; stroke-dasharray: none; stroke-linecap: butt; stroke-dashoffset: 0; stroke-linejoin: miter; stroke-miterlimit: 4; fill: rgb(0,0,0); fill-opacity: 0; fill-rule: nonzero; opacity: 1;"  cx="0" cy="0" r="5.655085653639773" />
</g>
</g>
</g>
<g transform="matrix(1 0 0 1 674.98 174.93)"  >
<line style="stroke: rgb(0,0,0); stroke-width: 1; stroke-dasharray: 10 3; stroke-linecap: butt; stroke-dashoffset: 0; stroke-linejoin: miter; stroke-miterlimit: 4; fill: rgb(0,0,0); fill-rule: nonzero; opacity: 1;"  x1="-49.5" y1="0.49968730456538424" x2="49.5" y2="-0.49968730456538424" />
</g>
<g transform="matrix(1 0 0 1 622.98 124.96)"  >
<line style="stroke: rgb(0,0,0); stroke-width: 1; stroke-dasharray: 10 3; stroke-linecap: butt; stroke-dashoffset: 0; stroke-linejoin: miter; stroke-miterlimit: 4; fill: rgb(0,0,0); fill-rule: nonzero; opacity: 1;"  x1="0.5" y1="-52.46716697936209" x2="-0.5" y2="52.46716697936209" />
</g>
<g transform="matrix(1 0 0 1 596.48 194.42)"  >
<line style="stroke: rgb(0,0,0); stroke-width: 1; stroke-dasharray: 10 3; stroke-linecap: butt; stroke-dashoffset: 0; stroke-linejoin: miter; stroke-miterlimit: 4; fill: rgb(0,0,0); fill-rule: nonzero; opacity: 1;"  x1="-26" y1="17.988742964352696" x2="26" y2="-17.988742964352696" />
</g>
<g transform="matrix(1 0 0 1 699.98 141.95)"  >
<line style="stroke: rgb(0,0,0); stroke-width: 1; stroke-dasharray: 10 3; stroke-linecap: butt; stroke-dashoffset: 0; stroke-linejoin: miter; stroke-miterlimit: 4; fill: rgb(0,0,0); fill-rule: nonzero; opacity: 1;"  x1="0" y1="0" x2="0" y2="0" />
</g>
<g transform="matrix(1 0 0 1 181.98 259.92)" style="filter: url(#SVGID_10);"  >
<filter id="SVGID_10" y="-20%" height="140%" x="-20%" width="140%" >
	<feGaussianBlur in="SourceAlpha" stdDeviation="0"></feGaussianBlur>
	<feOffset dx="0" dy="0" result="oBlur" ></feOffset>
	<feFlood flood-color="rgb(0,0,0)" flood-opacity="0"/>
	<feComposite in2="oBlur" operator="in" />
	<feMerge>
		<feMergeNode></feMergeNode>
		<feMergeNode in="SourceGraphic"></feMergeNode>
	</feMerge>
</filter>
		<rect opacity="0" fill="rgb(0,0,0)" x="-110" y="-9.04" width="22.42" height="18.08"></rect>
		<text xml:space="preserve" font-size="16" font-style="normal" font-weight="normal" style="stroke: rgb(0,0,0); stroke-width: 0; stroke-dasharray: none; stroke-linecap: butt; stroke-dashoffset: 0; stroke-linejoin: miter; stroke-miterlimit: 4; fill: rgb(0,0,0); fill-rule: nonzero; opacity: 1; white-space: pre;" ><tspan x="-110" y="5.03" >Q1</tspan></text>
</g>
<g transform="matrix(1 0 0 1 446.98 260.92)" style="filter: url(#SVGID_12);"  >
<filter id="SVGID_12" y="-20%" height="140%" x="-20%" width="140%" >
	<feGaussianBlur in="SourceAlpha" stdDeviation="0"></feGaussianBlur>
	<feOffset dx="0" dy="0" result="oBlur" ></feOffset>
	<feFlood flood-color="rgb(0,0,0)" flood-opacity="0"/>
	<feComposite in2="oBlur" operator="in" />
	<feMerge>
		<feMergeNode></feMergeNode>
		<feMergeNode in="SourceGraphic"></feMergeNode>
	</feMerge>
</filter>
		<rect opacity="0" fill="rgb(0,0,0)" x="-110" y="-9.04" width="22.42" height="18.08"></rect>
		<text xml:space="preserve" font-size="16" font-style="normal" font-weight="normal" style="stroke: rgb(0,0,0); stroke-width: 0; stroke-dasharray: none; stroke-linecap: butt; stroke-dashoffset: 0; stroke-linejoin: miter; stroke-miterlimit: 4; fill: rgb(0,0,0); fill-rule: nonzero; opacity: 1; white-space: pre;" ><tspan x="-110" y="5.03" >Q2</tspan></text>
</g>
<g transform="matrix(1 0 0 1 726.98 265.92)" style="filter: url(#SVGID_13);"  >
<filter id="SVGID_13" y="-20%" height="140%" x="-20%" width="140%" >
	<feGaussianBlur in="SourceAlpha" stdDeviation="0"></feGaussianBlur>
	<feOffset dx="0" dy="0" result="oBlur" ></feOffset>
	<feFlood flood-color="rgb(0,0,0)" flood-opacity="0"/>
	<feComposite in2="oBlur" operator="in" />
	<feMerge>
		<feMergeNode></feMergeNode>
		<feMergeNode in="SourceGraphic"></feMergeNode>
	</feMerge>
</filter>
		<rect opacity="0" fill="rgb(0,0,0)" x="-110" y="-9.04" width="22.42" height="18.08"></rect>
		<text xml:space="preserve" font-size="16" font-style="normal" font-weight="normal" style="stroke: rgb(0,0,0); stroke-width: 0; stroke-dasharray: none; stroke-linecap: butt; stroke-dashoffset: 0; stroke-linejoin: miter; stroke-miterlimit: 4; fill: rgb(0,0,0); fill-rule: nonzero; opacity: 1; white-space: pre;" ><tspan x="-110" y="5.03" >Q3</tspan></text>
</g>
</svg>